<svg width="36" height="36" viewBox="0 0 36 36" fill="none" xmlns="http://www.w3.org/2000/svg">
<path d="M18.0033 6.06799L4.99551 19.0653H8.37051V30.5157H13.7811V22.5C13.7811 21.7231 14.4104 21.0938 15.1873 21.0938H20.8123C21.5893 21.0938 22.2186 21.7231 22.2186 22.5V30.5157H27.6291V19.0653H31.0076L18.8154 6.8801L18.0033 6.06799ZM33.2787 20.9356C33.0678 21.1465 32.8182 21.3153 32.5475 21.4242C32.8182 21.3117 33.0678 21.1465 33.2787 20.9356ZM2.09512 19.7156C2.2709 20.7809 3.19902 21.5965 4.31348 21.5965H4.34512C3.22363 21.5965 2.27441 20.7879 2.09512 19.7156ZM2.06348 19.3465V19.2797V19.3465ZM2.06699 19.2551C2.07051 19.1461 2.08457 19.0406 2.10215 18.9352C2.08105 19.0371 2.07051 19.1461 2.06699 19.2551Z" fill="#E6F7FF"/>
<path d="M33.4338 17.9297C33.4338 17.9261 33.4303 17.9261 33.4303 17.9226L33.367 17.8488C33.3635 17.8453 33.36 17.8382 33.3529 17.8347C33.3283 17.8066 33.3002 17.7785 33.2756 17.7504L19.6912 4.17653L18.7807 3.26598C18.5732 3.05988 18.2926 2.94421 18.0002 2.94421C17.7078 2.94421 17.4272 3.05988 17.2197 3.26598L2.7248 17.7539C2.46294 18.0143 2.26969 18.3356 2.1623 18.689L2.14121 18.7629L2.13066 18.8015L2.12012 18.8437C2.11309 18.8683 2.10957 18.8929 2.10605 18.9175C2.10605 18.9211 2.10605 18.9281 2.10254 18.9316C2.08145 19.0371 2.0709 19.1425 2.06738 19.2515V19.3675C2.06738 19.3851 2.06738 19.4027 2.0709 19.4203C2.0709 19.4379 2.0709 19.4519 2.07441 19.4695C2.07441 19.4871 2.07793 19.5047 2.07793 19.5222C2.07793 19.5433 2.08145 19.5644 2.08496 19.5855C2.08496 19.5961 2.08848 19.6066 2.08848 19.6172L2.09902 19.705V19.7086C2.27832 20.7808 3.23105 21.5894 4.34902 21.5894H5.84316V33.0468H30.1607V21.5964H31.6865C31.9889 21.5964 32.2807 21.5367 32.5479 21.4242C32.815 21.3117 33.0647 21.1465 33.2791 20.9355C33.4886 20.7267 33.6545 20.4785 33.7674 20.2051C33.8802 19.9317 33.9377 19.6387 33.9365 19.3429C33.9365 18.8261 33.7607 18.3304 33.4338 17.9297V17.9297ZM19.9689 30.5156H16.0314V23.3437H19.9689V30.5156ZM27.6295 19.0652V30.5156H22.2189V22.5C22.2189 21.723 21.5897 21.0937 20.8127 21.0937H15.1877C14.4107 21.0937 13.7814 21.723 13.7814 22.5V30.5156H8.3709V19.0652H4.9959L18.0037 6.06794L18.8158 6.88004L31.008 19.0652H27.6295Z" fill="#1890FF"/>
</svg>
