<svg width="36" height="36" viewBox="0 0 36 36" fill="none" xmlns="http://www.w3.org/2000/svg">
<path d="M26.0156 12.0938H14.2031V8.4375H10.6875V14.0625H16.875C17.4973 14.0625 18 14.5652 18 15.1875V27.8438H29.5312V8.4375H26.0156V12.0938ZM20.5312 15.75C20.5312 15.5953 20.6578 15.4688 20.8125 15.4688H22.5C22.6547 15.4688 22.7812 15.5953 22.7812 15.75V17.7188C22.7812 17.8734 22.6547 18 22.5 18H20.8125C20.6578 18 20.5312 17.8734 20.5312 17.7188V15.75ZM23.7656 26.332C21.9797 26.332 20.5312 24.8836 20.5312 23.0977C20.5312 21.3117 21.9797 19.8633 23.7656 19.8633C25.5516 19.8633 27 21.3117 27 23.0977C27 24.8836 25.5516 26.332 23.7656 26.332ZM27 14.3438V17.7188C27 17.8734 26.8734 18 26.7188 18H25.0312C24.8766 18 24.75 17.8734 24.75 17.7188V14.3438C24.75 14.1891 24.8766 14.0625 25.0312 14.0625H26.7188C26.8734 14.0625 27 14.1891 27 14.3438Z" fill="#E6F7FF"/>
<path d="M22.5703 23.0977C22.5703 23.4147 22.6962 23.7187 22.9204 23.9429C23.1446 24.167 23.4486 24.293 23.7656 24.293C24.0826 24.293 24.3867 24.167 24.6108 23.9429C24.835 23.7187 24.9609 23.4147 24.9609 23.0977C24.9609 22.7806 24.835 22.4766 24.6108 22.2524C24.3867 22.0283 24.0826 21.9023 23.7656 21.9023C23.4486 21.9023 23.1446 22.0283 22.9204 22.2524C22.6962 22.4766 22.5703 22.7806 22.5703 23.0977Z" fill="#E6F7FF"/>
<path d="M20.8125 18H22.5C22.6547 18 22.7812 17.8734 22.7812 17.7188V15.75C22.7812 15.5953 22.6547 15.4688 22.5 15.4688H20.8125C20.6578 15.4688 20.5312 15.5953 20.5312 15.75V17.7188C20.5312 17.8734 20.6578 18 20.8125 18ZM24.75 14.3438V17.7188C24.75 17.8734 24.8766 18 25.0312 18H26.7188C26.8734 18 27 17.8734 27 17.7188V14.3438C27 14.1891 26.8734 14.0625 26.7188 14.0625H25.0312C24.8766 14.0625 24.75 14.1891 24.75 14.3438Z" fill="#1890FF"/>
<path d="M30.9375 5.90625H23.4844C23.4844 4.81992 22.602 3.9375 21.5156 3.9375H18.7031C17.6168 3.9375 16.7344 4.81992 16.7344 5.90625H9.28125C8.65898 5.90625 8.15625 6.40898 8.15625 7.03125V14.0625H5.0625C4.44023 14.0625 3.9375 14.5652 3.9375 15.1875V30.9375C3.9375 31.5598 4.44023 32.0625 5.0625 32.0625H16.875C17.4973 32.0625 18 31.5598 18 30.9375V30.375H30.9375C31.5598 30.375 32.0625 29.8723 32.0625 29.25V7.03125C32.0625 6.40898 31.5598 5.90625 30.9375 5.90625ZM16.4531 8.15625H18.9844V6.1875H21.2344V8.15625H23.7656V9.84375H16.4531V8.15625ZM15.75 29.8125H6.1875V21.6562H15.75V29.8125ZM15.75 19.4062H6.1875V16.3125H15.75V19.4062ZM29.5312 27.8438H18V15.1875C18 14.5652 17.4973 14.0625 16.875 14.0625H10.6875V8.4375H14.2031V12.0938H26.0156V8.4375H29.5312V27.8438Z" fill="#1890FF"/>
<path d="M23.7656 19.8633C21.9797 19.8633 20.5312 21.3117 20.5312 23.0977C20.5312 24.8836 21.9797 26.332 23.7656 26.332C25.5516 26.332 27 24.8836 27 23.0977C27 21.3117 25.5516 19.8633 23.7656 19.8633ZM23.7656 24.293C23.1047 24.293 22.5703 23.7586 22.5703 23.0977C22.5703 22.4367 23.1047 21.9023 23.7656 21.9023C24.4266 21.9023 24.9609 22.4367 24.9609 23.0977C24.9609 23.7586 24.4266 24.293 23.7656 24.293Z" fill="#1890FF"/>
</svg>
